<?xml version="1.0" encoding="utf-8"?>
<!-- Generator: Adobe Illustrator 23.0.3, SVG Export Plug-In . SVG Version: 6.00 Build 0)  -->
<svg version="1.1" id="Ebene_1" xmlns="http://www.w3.org/2000/svg" xmlns:xlink="http://www.w3.org/1999/xlink" x="0px" y="0px"
	 viewBox="0 0 20 19" style="enable-background:new 0 0 20 19;" xml:space="preserve">
<style type="text/css">
	.st0{filter:url(#Adobe_OpacityMaskFilter);}
	.st1{fill-rule:evenodd;clip-rule:evenodd;fill:#FFFFFF;}
	.st2{mask:url(#mask-2_1_);fill-rule:evenodd;clip-rule:evenodd;fill:#888888;}
	.st3{filter:url(#Adobe_OpacityMaskFilter_1_);}
	.st4{mask:url(#mask-4_1_);fill-rule:evenodd;clip-rule:evenodd;fill:#888888;}
</style>
<g id="Symbols">
	<g transform="translate(-903.000000, -712.000000)">
		<g id="Footer">
			<g id="Social-Media" transform="translate(570.000000, 674.000000)">
				<g id="Page-1" transform="translate(333.000000, 38.000000)">
					<g id="Group-3" transform="translate(0.000000, 0.125359)">
						<g id="Clip-2">
						</g>
						<defs>
							<filter id="Adobe_OpacityMaskFilter" filterUnits="userSpaceOnUse" x="0" y="0" width="4.6" height="18">
								<feColorMatrix  type="matrix" values="1 0 0 0 0  0 1 0 0 0  0 0 1 0 0  0 0 0 1 0"/>
							</filter>
						</defs>
						<mask maskUnits="userSpaceOnUse" x="0" y="0" width="4.6" height="18" id="mask-2_1_">
							<g class="st0">
								<polygon id="path-1_1_" class="st1" points="4.6,18.1 0,18.1 0,0 4.6,0 								"/>
							</g>
						</mask>
						<path id="Fill-1" class="st2" d="M2.3,4.2c1.4,0,2.3-0.9,2.3-2.1C4.6,0.9,3.7,0,2.3,0C0.9,0,0,0.9,0,2.1
							C0,3.3,0.9,4.2,2.3,4.2L2.3,4.2z M0.2,18.1h4.1V5.9H0.2V18.1z"/>
					</g>
					<g id="Group-6" transform="translate(6.578947, 5.597359)">
						<g id="Clip-5">
						</g>
						<defs>
							<filter id="Adobe_OpacityMaskFilter_1_" filterUnits="userSpaceOnUse" x="0.1" y="0.1" width="12.6" height="12.5">
								<feColorMatrix  type="matrix" values="1 0 0 0 0  0 1 0 0 0  0 0 1 0 0  0 0 0 1 0"/>
							</filter>
						</defs>
						<mask maskUnits="userSpaceOnUse" x="0.1" y="0.1" width="12.6" height="12.5" id="mask-4_1_">
							<g class="st3">
								<polygon id="path-3_1_" class="st1" points="12.6,0.1 12.6,12.6 6.3,12.6 0.1,12.6 0.1,0.1 								"/>
							</g>
						</mask>
						<path id="Fill-4" class="st4" d="M0.1,12.6h4.1V5.8c0-0.4,0-0.7,0.1-1c0.3-0.7,1-1.5,2.1-1.5c1.5,0,2.1,1.1,2.1,2.8v6.5h4.1
							v-7c0-3.7-2-5.5-4.7-5.5c-2.2,0-3.2,1.2-3.7,2.1h0V0.4H0.1C0.1,1.6,0.1,12.6,0.1,12.6"/>
					</g>
				</g>
			</g>
		</g>
	</g>
</g>
</svg>
